<svg xmlns="http://www.w3.org/2000/svg" width="329" height="77" viewBox="0 0 329 77">
    <g fill="none" fill-rule="evenodd">
        <path fill="#FFF" fill-opacity=".94" d="M135.892 15.743h-.82c-1.104-3.344-4.071-5.743-7.57-5.743-3.714 0-6.831 2.705-7.751 6.373-2.782 1.244-4.751 4.188-4.751 7.605v.757c0 4.53 3.46 8.237 7.685 8.237h13.207c4.226 0 7.684-3.707 7.684-8.237v-.757c0-4.53-3.458-8.235-7.684-8.235"/>
        <path fill="#FFF" fill-opacity=".94" d="M30.559 8.743C28.877 3.653 24.359 0 19.032 0 13.38 0 8.633 4.118 7.232 9.703 2.997 11.595 0 16.078 0 21.28v1.152c0 6.896 5.266 12.54 11.7 12.54h20.105c6.434 0 11.698-5.644 11.698-12.54V21.28c0-6.896-5.264-12.537-11.698-12.537h-1.246zM322.156 62.622c-.889-2.691-3.277-4.622-6.094-4.622-2.988 0-5.498 2.177-6.238 5.13-2.24 1-3.824 3.37-3.824 6.121v.609c0 3.646 2.784 6.63 6.186 6.63h10.63c3.401 0 6.184-2.984 6.184-6.63v-.609c0-3.646-2.783-6.629-6.185-6.629h-.659z" opacity=".2"/>
        <path fill="#FFF" fill-opacity=".94" d="M172.989 8.364h-.399c-.535-1.671-1.976-2.872-3.676-2.872-1.803 0-3.318 1.351-3.764 3.188-1.352.62-2.309 2.094-2.309 3.801v.38c0 2.264 1.68 4.117 3.734 4.117h6.414c2.053 0 3.732-1.853 3.732-4.117v-.38c0-2.264-1.68-4.117-3.732-4.117"/>
        <path fill="#FFF" d="M158.27 61.281h-10.45c-.721 0-1.308-.55-1.308-1.23 0-.68.587-1.23 1.308-1.23h10.45c.72 0 1.306.55 1.306 1.23 0 .68-.585 1.23-1.307 1.23M142.757 53.077h-10.45c-.72 0-1.307-.55-1.307-1.23 0-.68.586-1.231 1.308-1.231h10.449c.721 0 1.306.55 1.306 1.23 0 .68-.585 1.231-1.306 1.231M141.07 48.155h-5.443c-.752 0-1.361-.551-1.361-1.231s.609-1.23 1.36-1.23h5.443c.752 0 1.361.55 1.361 1.23 0 .68-.609 1.23-1.36 1.23M217.651 42.028l-30.298-19.073a2.378 2.378 0 0 0-1.718-.394l-11.512 2.245c-1.66.258-2.538 2.112-1.685 3.558l11.203 18.98 34.01-5.316z"/>
        <path fill="#525252" d="M183.643 48.781a1.42 1.42 0 0 1-1.225-.701L171.215 29.1a3.82 3.82 0 0 1-.171-3.56 3.803 3.803 0 0 1 2.86-2.155l11.46-2.235c1.015-.157 1.992.063 2.795.62l30.246 19.039c.667.42.871 1.306.455 1.98a1.418 1.418 0 0 1-1.962.459l-30.3-19.073c-.255-.175-.501-.228-.745-.194l-11.46 2.235c-.508.08-.707.41-.773.55a.907.907 0 0 0 .043.863l11.202 18.979c.403.683.18 1.564-.494 1.97-.228.138-.48.203-.728.203"/>
        <path fill="#FFF" d="M245.296 38.54c.013-11.229-9.494-14.246-18.988-13.06L156.79 33.4a2.374 2.374 0 0 1-2.15-.913l-8.082-10.52a2.374 2.374 0 0 0-2.458-.857l-11.307.31 13.994 29.314a4.13 4.13 0 0 0 3.57 2.051h75.95c20.175 0 18.989-14.246 18.989-14.246"/>
        <path fill="#FDB814" d="M156.79 33.4a2.374 2.374 0 0 1-2.15-.913l-6.658-7.645a2.374 2.374 0 0 0-2.458-.858l-8.458.31 12.57 26.44 7.154-17.333z"/>
        <path fill="#525252" d="M135.031 22.797l13.04 27.315c.426.723 1.324 1.236 2.286 1.236h75.952c6.752 0 11.673-1.63 14.627-4.842 3.224-3.506 2.944-7.809 2.94-7.854-.002-.035-.005-.077-.005-.114.004-3.726-1.128-6.626-3.364-8.625-3.015-2.691-7.996-3.757-14.023-3.007l-69.534 7.923a3.814 3.814 0 0 1-3.436-1.463l-8.082-10.519a.948.948 0 0 0-.99-.342c-.1.024-.2.039-.303.042l-9.108.25zm91.278 31.425h-75.952a5.569 5.569 0 0 1-4.796-2.76l-14.05-29.418a1.45 1.45 0 0 1 .066-1.373c.251-.415.695-.674 1.177-.688l11.172-.307a3.798 3.798 0 0 1 3.758 1.412l8.081 10.52a.95.95 0 0 0 .866.364l69.518-7.92c6.832-.853 12.61.462 16.245 3.708 2.866 2.558 4.321 6.168 4.326 10.73.042.683.203 5.693-3.654 9.926-3.51 3.853-9.149 5.806-16.757 5.806z"/>
        <path fill="#FFF" d="M210.405 47.6l-24.233 20.213a2.372 2.372 0 0 1-1.638.656h-14.532a2.375 2.375 0 0 1-2.205-3.256L175.99 47.6h34.415z"/>
        <path fill="#525252" d="M184.534 69.906h-14.533a3.786 3.786 0 0 1-3.153-1.689 3.817 3.817 0 0 1-.37-3.543L174.7 46.99a1.419 1.419 0 0 1 1.895-.69 1.442 1.442 0 0 1 .683 1.91l-8.192 17.613c-.127.322.021.636.122.787a.942.942 0 0 0 .792.421h14.533a.938.938 0 0 0 .658-.263l24.305-20.275a1.417 1.417 0 0 1 2.007.193c.5.612.416 1.516-.19 2.022L187.078 68.92c-.638.614-1.566.986-2.545.986M162.7 41.683a1.43 1.43 0 0 1-1.414-1.286 1.433 1.433 0 0 1 1.266-1.58l1.416-.152a1.433 1.433 0 0 1 1.567 1.278 1.435 1.435 0 0 1-1.267 1.58l-1.415.151a1.354 1.354 0 0 1-.153.01M219.863 35.547a1.43 1.43 0 0 1-1.416-1.287 1.434 1.434 0 0 1 1.267-1.58l2.788-.298c.767-.09 1.482.487 1.566 1.278a1.434 1.434 0 0 1-1.267 1.58l-2.788.298a1.33 1.33 0 0 1-.15.009m-8.362.898a1.43 1.43 0 0 1-1.416-1.286 1.434 1.434 0 0 1 1.266-1.58l2.787-.299a1.43 1.43 0 0 1 1.569 1.278 1.434 1.434 0 0 1-1.268 1.58l-2.787.298a1.33 1.33 0 0 1-.151.009m-8.362.897c-.72 0-1.337-.548-1.414-1.286a1.433 1.433 0 0 1 1.266-1.58l2.787-.299c.77-.088 1.483.487 1.567 1.278a1.434 1.434 0 0 1-1.266 1.58l-2.788.298a1.373 1.373 0 0 1-.152.009m-8.362.898c-.72 0-1.337-.547-1.414-1.286a1.432 1.432 0 0 1 1.266-1.58l2.787-.299a1.439 1.439 0 0 1 1.567 1.278 1.434 1.434 0 0 1-1.266 1.58l-2.787.299a1.373 1.373 0 0 1-.153.008m-8.362.897A1.43 1.43 0 0 1 185 37.852a1.435 1.435 0 0 1 1.267-1.58l2.787-.3a1.43 1.43 0 0 1 1.567 1.278 1.434 1.434 0 0 1-1.266 1.58l-2.787.298a1.373 1.373 0 0 1-.153.009m-8.361.898a1.43 1.43 0 0 1-1.415-1.285 1.433 1.433 0 0 1 1.265-1.58l2.787-.301c.77-.09 1.484.487 1.567 1.276a1.433 1.433 0 0 1-1.265 1.581l-2.787.3a1.373 1.373 0 0 1-.152.01m-8.362.896a1.43 1.43 0 0 1-1.416-1.285 1.436 1.436 0 0 1 1.266-1.58l2.787-.3a1.423 1.423 0 0 1 1.569 1.278 1.434 1.434 0 0 1-1.268 1.58l-2.787.298a1.33 1.33 0 0 1-.151.01M226.81 33.362a1.433 1.433 0 0 1 1.266-1.58l4.833-.565a1.435 1.435 0 0 1 1.567 1.278 1.435 1.435 0 0 1-1.266 1.58l-4.833.565a1.43 1.43 0 0 1-1.567-1.278z"/>
    </g>
</svg>
